<svg width="726" height="160" viewBox="0 0 726 160" fill="none" xmlns="http://www.w3.org/2000/svg">
<path fill-rule="evenodd" clip-rule="evenodd" d="M214.613 117.737L214.607 117.733C206.725 112.363 202.742 104.361 202.573 94.0328L202.54 92H223.877L223.97 93.9018C224.18 98.1551 225.97 101.222 229.387 103.34C232.962 105.557 237.914 106.76 244.413 106.76H246.333C253.055 106.76 257.455 105.832 259.917 104.301C262.478 102.709 263.413 100.993 263.413 99.16C263.413 97.1496 262.58 95.5381 260.666 94.1985L260.653 94.1893L260.64 94.1799C258.717 92.7875 255.189 91.5641 249.738 90.6951L249.727 90.6933L236.644 88.5328C226.9 86.9087 219.447 84.1474 214.567 80.0519L214.56 80.0462L214.553 80.0405C209.593 75.8018 207.253 69.6137 207.253 61.84C207.253 57.1112 208.617 52.6909 211.303 48.6188C214.045 44.4612 218.268 41.2054 223.797 38.774C229.42 36.2207 236.485 35 244.893 35C256.831 35 266.498 37.5321 273.675 42.8265C280.874 48.0573 284.913 55.3071 285.764 64.4139L285.968 66.6H264.624L264.391 64.8668C263.911 61.305 262.176 58.6266 259.076 56.6981C255.895 54.7189 251.541 53.64 245.853 53.64H243.933C238.25 53.64 234.173 54.504 231.485 56.0165C228.812 57.567 227.933 59.1712 227.933 60.76C227.933 63.1608 228.764 64.6837 230.282 65.6959C232.095 66.9042 235.124 67.9641 239.584 68.7477L253.014 70.9059C263.044 72.5368 270.823 75.5922 276.098 80.2625C281.434 84.9854 284.093 91.1434 284.093 98.56C284.093 107.185 280.635 113.979 273.741 118.691L273.737 118.694C267.026 123.254 257.523 125.4 245.493 125.4C232.7 125.4 222.343 122.918 214.619 117.741L214.613 117.737Z" fill="black"/>
<path fill-rule="evenodd" clip-rule="evenodd" d="M296.211 109.839L296.201 109.822C293.015 104.743 291.455 98.8441 291.455 92.2C291.455 85.5568 293.015 79.6912 296.209 74.6844L296.214 74.677C299.462 69.6342 303.908 65.7529 309.502 63.0404C315.1 60.3262 321.528 59 328.735 59C335.941 59 342.369 60.3262 347.968 63.0404C353.56 65.7519 357.969 69.6335 361.139 74.6805C364.414 79.6863 366.015 85.5537 366.015 92.2C366.015 98.8523 364.411 104.757 361.139 109.838C357.967 114.81 353.556 118.65 347.968 121.359C342.369 124.074 335.941 125.4 328.735 125.4C321.528 125.4 315.1 124.074 309.502 121.359C303.917 118.651 299.472 114.816 296.222 109.856L296.211 109.839ZM337.99 77.8828L337.959 77.8659C335.575 76.5332 332.798 75.84 329.575 75.84H327.895C324.673 75.84 321.846 76.5329 319.369 77.8777L319.36 77.8827L319.351 77.8876C316.967 79.1497 315.076 80.9648 313.659 83.374C312.275 85.7264 311.535 88.6394 311.535 92.2C311.535 95.6652 312.269 98.5883 313.665 101.037C315.081 103.44 316.972 105.296 319.36 106.637C321.838 107.905 324.669 108.56 327.895 108.56H329.575C332.812 108.56 335.599 107.901 337.99 106.637C340.466 105.291 342.393 103.432 343.805 101.037C345.201 98.5881 345.935 95.665 345.935 92.2C345.935 88.6394 345.195 85.7264 343.811 83.374C342.403 80.9795 340.483 79.165 338.02 77.8986L337.99 77.8828Z" fill="black"/>
<path fill-rule="evenodd" clip-rule="evenodd" d="M375.131 124.2V36.2H395.091V124.2H375.131Z" fill="black"/>
<path fill-rule="evenodd" clip-rule="evenodd" d="M406.978 62.2H426.938V124.2H406.978V62.2Z" fill="black"/>
<path fill-rule="evenodd" clip-rule="evenodd" d="M451.787 121.457L451.775 121.45C446.726 118.798 442.698 114.98 439.713 110.033L439.709 110.027L439.705 110.02C436.691 104.94 435.225 98.9736 435.225 92.2C435.225 85.058 436.678 78.9525 439.716 74.0008C442.706 69.048 446.747 65.3014 451.817 62.808C456.909 60.2632 462.456 59 468.425 59C474.29 59 479.288 59.9054 483.32 61.8318C485.458 62.8331 487.353 63.975 488.985 65.2668V36.2H508.945V124.2H488.985V119.443C487.192 120.835 485.103 122.007 482.741 122.971L482.724 122.978L482.708 122.985C478.52 124.608 473.829 125.4 468.665 125.4C462.532 125.4 456.893 124.095 451.787 121.457ZM486.746 101.258L486.75 101.251C488.209 98.819 488.985 95.8305 488.985 92.2C488.985 88.4786 488.205 85.5046 486.763 83.171L486.752 83.1526L486.741 83.134C485.338 80.7488 483.431 78.9843 480.991 77.799L480.96 77.7838L480.929 77.7676C478.537 76.5009 475.746 75.84 472.505 75.84H470.825C466.16 75.84 462.483 77.2801 459.622 80.0716L459.613 80.0804L459.603 80.0891C456.832 82.725 455.305 86.651 455.305 92.2C455.305 97.7399 456.828 101.718 459.612 104.439C462.47 107.153 466.15 108.56 470.825 108.56H472.505C475.759 108.56 478.561 107.934 480.96 106.736C483.418 105.47 485.335 103.657 486.741 101.266L486.746 101.258Z" fill="black"/>
<path d="M544.733 122.2L520.133 38.2H529.253L551.695 114.196L574.613 38.2H586.253L608.573 114.779L631.013 38.2H640.133L614.693 122.2H601.613L580.01 48.013L557.813 122.2H544.733Z" fill="black"/>
<path fill-rule="evenodd" clip-rule="evenodd" d="M655.02 38.2V122.2H663.78V87.76H697.14C702.58 87.76 707.42 86.8 711.66 84.88C715.98 82.96 719.34 80.16 721.74 76.48C724.22 72.72 725.46 68.2 725.46 62.92C725.46 57.72 724.22 53.28 721.74 49.6C719.34 45.92 715.98 43.12 711.66 41.2C707.42 39.2 702.58 38.2 697.14 38.2H655.02ZM695.34 79.72H663.78V46.24H695.34C702.3 46.24 707.58 47.68 711.18 50.56C714.78 53.36 716.58 57.48 716.58 62.92C716.58 68.36 714.78 72.52 711.18 75.4C707.58 78.28 702.3 79.72 695.34 79.72Z" fill="black"/>
<path fill-rule="evenodd" clip-rule="evenodd" d="M416.61 55.9766C409.899 55.9766 405.27 51.3472 405.27 45.6366C405.27 39.9259 409.899 35.2966 416.61 35.2966H417.09C423.801 35.2966 428.43 39.9259 428.43 45.6366C428.43 51.3472 423.801 55.9766 417.09 55.9766H416.61Z" fill="black"/>
<circle cx="80.5397" cy="80" r="80" fill="#6817C5"/>
<g filter="url(#filter0_ii_582_133)">
<path d="M59.0135 73.7459C59.0135 72.7574 59.8149 71.9561 60.8034 71.9561H88.7456C96.3243 71.9561 102.468 78.0998 102.468 85.6785H70.9461C64.3559 85.6785 59.0135 80.3361 59.0135 73.7459Z" fill="#D9D9D9"/>
</g>
<path d="M57.8087 84.7625H101.721C102.134 84.7625 102.469 85.0973 102.469 85.5103C102.469 99.2442 91.335 110.378 77.6011 110.378H33.6892C33.2761 110.378 32.9413 110.043 32.9413 109.63C32.9413 95.896 44.0748 84.7625 57.8087 84.7625Z" fill="#FBF9FF"/>
<path d="M83.881 50H127.793C128.206 50 128.541 50.3348 128.541 50.7479C128.541 64.4818 117.407 75.6153 103.673 75.6153H59.7614C59.3484 75.6153 59.0135 75.2805 59.0135 74.8674C59.0135 61.1335 70.1471 50 83.881 50Z" fill="#FBF9FF"/>
<defs>
<filter id="filter0_ii_582_133" x="59.0135" y="69.9561" width="43.4545" height="19.7224" filterUnits="userSpaceOnUse" color-interpolation-filters="sRGB">
<feFlood flood-opacity="0" result="BackgroundImageFix"/>
<feBlend mode="normal" in="SourceGraphic" in2="BackgroundImageFix" result="shape"/>
<feColorMatrix in="SourceAlpha" type="matrix" values="0 0 0 0 0 0 0 0 0 0 0 0 0 0 0 0 0 0 127 0" result="hardAlpha"/>
<feOffset dy="-2"/>
<feGaussianBlur stdDeviation="2"/>
<feComposite in2="hardAlpha" operator="arithmetic" k2="-1" k3="1"/>
<feColorMatrix type="matrix" values="0 0 0 0 0.113725 0 0 0 0 0.0117647 0 0 0 0 0.235294 0 0 0 0.12 0"/>
<feBlend mode="normal" in2="shape" result="effect1_innerShadow_582_133"/>
<feColorMatrix in="SourceAlpha" type="matrix" values="0 0 0 0 0 0 0 0 0 0 0 0 0 0 0 0 0 0 127 0" result="hardAlpha"/>
<feOffset dy="4"/>
<feGaussianBlur stdDeviation="2"/>
<feComposite in2="hardAlpha" operator="arithmetic" k2="-1" k3="1"/>
<feColorMatrix type="matrix" values="0 0 0 0 0.113725 0 0 0 0 0.0117647 0 0 0 0 0.235294 0 0 0 0.12 0"/>
<feBlend mode="normal" in2="effect1_innerShadow_582_133" result="effect2_innerShadow_582_133"/>
</filter>
</defs>
</svg>
