<svg xmlns="http://www.w3.org/2000/svg" viewBox="0 0 563.04 49.08"><path d="M39.36,49H3.28a3.61,3.61,0,0,1-2.19-3C.81,43,.38,39.92,0,36.83c.23-4,.84-8,1.16-12,.72-7.12,1.45-14.24,2.1-21.37C3.41,1.87,3.92.65,5.46,0h31.9c2.76,1.38,1.92,4.81,2.44,7.34,1,9.34,1.75,18.7,2.82,28a6.48,6.48,0,0,1-.15,2c-.26,2.53-.58,5.07-.76,7.6C41.61,46.8,41.12,48.28,39.36,49Zm0-13.16c-.93-10.61-2.21-21.21-3.22-31.82-.07-.67-.31-.89-1-.89q-13.84,0-27.7,0c-.67,0-.94.18-1,.89-1,10.64-2.19,21.19-3.23,31.82Zm-.23,3.32H3.54c.21,1.9.49,3.73.61,5.57.06.93.36,1.13,1.26,1.13H38c.18-.06.44-.26.46-.43C38.69,43.38,38.92,41.34,39.17,39.2Z" style="fill:#fff"/><path d="M21.33,28.32c-17.81-.53-16.07-21,1.25-20C38.81,10,37.17,28.19,21.33,28.32ZM27,18h0c1.11-.13,2.56.43,3.41-.47a2.06,2.06,0,0,0-1.63-2.74c-1.2,0-2.6-.15-3.91-.23-3.45,0,.72-4.76-4.28-3.93-2.16.12.05,4.08-2.47,3.94-1.24,0-2.49.2-3.72.24-1.57,0-1.84.32-2.14,2.08-.13.73.14,1.16,1,1.14,1.55,0,3.1,0,4.65,0,1.18,0,1.38.2,1.4,1.35.33,4.06-1.13,4.7,3.13,4.5.72,0,1.05-.33,1.05-1.07C23.77,18.31,22.1,17.77,27,18Z" style="fill:#fff"/><path d="M15.72,41.23c-2.65.08-2.72,3,0,3.17S18.28,41.24,15.72,41.23Zm-.06,2.7a1.12,1.12,0,0,1,0-2.24,1.12,1.12,0,0,1,0,2.24Z" style="fill:#fff"/><path d="M21.36,41.23c-2.59,0-2.67,3.13-.06,3.17S23.93,41.29,21.36,41.23Zm0,2.7a1.13,1.13,0,0,1,0-2.25,1.13,1.13,0,0,1,0,2.25Z" style="fill:#fff"/><path d="M27,41.23c-2.61.07-2.64,3.1,0,3.15S29.58,41.21,27,41.23Zm0,2.7a1.13,1.13,0,0,1,0-2.25,1.13,1.13,0,0,1,0,2.25Z" style="fill:#fff"/><path d="M65.4.69H82.05q9.74,0,14.45,2.89t4.72,9a11.4,11.4,0,0,1-2,6.86,9.25,9.25,0,0,1-5.43,3.66v.32a11.13,11.13,0,0,1,6.44,3.92,11.81,11.81,0,0,1,2,7.12,12.22,12.22,0,0,1-4.88,10.24Q92.4,48.43,84,48.43H65.4ZM78.3,19h3.89a7,7,0,0,0,4.29-1.14A4,4,0,0,0,88,14.47q0-4-6.08-4H78.3Zm0,9.44v10h4.54q6,0,6-5.1a4.38,4.38,0,0,0-1.62-3.66,7.48,7.48,0,0,0-4.68-1.27Z" style="fill:#fff"/><path d="M139.75,48.43l-2.35-9H121.89l-2.41,9H105.3L120.88.49h17.21l15.77,47.94Zm-5-19.53-2.05-7.84q-.72-2.61-1.75-6.76c-.68-2.76-1.14-4.74-1.35-5.94q-.3,1.67-1.16,5.49T124.57,28.9Z" style="fill:#fff"/><path d="M180.28,10.58a8.24,8.24,0,0,0-7.19,3.77q-2.58,3.78-2.58,10.4,0,13.78,10.48,13.78a21.35,21.35,0,0,0,6.14-.88c2-.59,4-1.3,6-2.12v10.9a33,33,0,0,1-13.52,2.65q-10.8,0-16.57-6.27t-5.76-18.12a28.9,28.9,0,0,1,2.79-13,19.94,19.94,0,0,1,8-8.64,24.28,24.28,0,0,1,12.33-3A34,34,0,0,1,195.2,3.36l-3.95,10.16A43.62,43.62,0,0,0,186,11.43,18.36,18.36,0,0,0,180.28,10.58Z" style="fill:#fff"/><path d="M243.2,48.43H228.64L219.2,30.17l-3.82,2.29v16h-13V.69h13V21.42a57,57,0,0,1,4-6.11l10-14.62h14.11L228.41,22.07Z" style="fill:#fff"/><path d="M289,.69V29.42q0,9.38-5.31,14.52t-15.3,5.14q-9.76,0-15-5T248.1,29.71V.69h13v28q0,5.07,1.9,7.35a6.84,6.84,0,0,0,5.58,2.29q3.94,0,5.73-2.27c1.19-1.52,1.78-4,1.78-7.43V.69Z" style="fill:#fff"/><path d="M333.62,15.87q0,8-4.72,12.36t-13.4,4.36h-3.63V48.43H299V.69H315.5q9,0,13.58,4T333.62,15.87Zm-21.75,6.2h2.35a6.4,6.4,0,0,0,4.62-1.63,5.94,5.94,0,0,0,1.72-4.51q0-4.83-5.36-4.83h-3.33Z" style="fill:#fff"/><path d="M342.63.69h13.49q9.5,0,13.74,2.84t4.25,9a10.36,10.36,0,0,1-2.37,7,11.43,11.43,0,0,1-6.91,3.58v.32q10.88,1.86,10.88,11.43,0,6.4-4.33,10t-12.1,3.6H342.63Zm5.55,20.44h9.14q5.88,0,8.46-1.85t2.58-6.22q0-4-2.87-5.79t-9.15-1.78h-8.16Zm0,4.7V43.69h10q5.78,0,8.7-2.24t2.93-7q0-4.44-3-6.53c-2-1.39-5-2.09-9.1-2.09Z" style="fill:#fff"/><path d="M422,.69V31.58q0,8.16-4.93,12.83t-13.55,4.67q-8.62,0-13.34-4.7t-4.72-12.93V.69H391V31.84q0,6,3.27,9.17t9.6,3.2q6,0,9.3-3.21t3.27-9.23V.69Z" style="fill:#fff"/><path d="M472.75,24.1q0,11.82-6.41,18.07t-18.47,6.26H434.65V.69h14.63q11.13,0,17.3,6.17T472.75,24.1Zm-5.87.19q0-9.33-4.69-14.07T448.26,5.49H440.2V43.63H447q9.93,0,14.92-4.89T466.88,24.29Z" style="fill:#fff"/><path d="M521.51,24.1q0,11.82-6.42,18.07t-18.47,6.26H483.4V.69H498q11.13,0,17.3,6.17T521.51,24.1Zm-5.88.19q0-9.33-4.69-14.07T497,5.49H489V43.63h6.76q9.93,0,14.92-4.89T515.63,24.29Z" style="fill:#fff"/><path d="M544.3,24.56,557,.69h6L547.11,29.91V48.43h-5.62V30.17L525.59.69h6.07Z" style="fill:#fff"/></svg>