<svg width="251" height="40" viewBox="0 0 251 40" fill="none" xmlns="http://www.w3.org/2000/svg">
<circle cx="19.1938" cy="20" r="19.1938" fill="#6817C5"/>
<g clip-path="url(#clip0_5161_11846)">
<path fill-rule="evenodd" clip-rule="evenodd" d="M19.2001 10.4155C13.0916 10.4155 8.8291 12.2381 8.8291 13.8654C8.8291 15.4929 13.0917 17.297 19.2001 17.297C25.3085 17.297 29.5584 15.4927 29.5584 13.8654C29.5584 12.2381 25.3085 10.4155 19.2001 10.4155ZM29.5584 15.8977C27.5812 17.534 23.3008 18.4073 19.2001 18.4073C15.0994 18.4073 10.8064 17.534 8.8291 15.8977V19.9999C8.83148 21.627 13.0933 23.4333 19.2001 23.4333C25.3086 23.4333 29.5584 21.6272 29.5584 19.9999V15.8977ZM19.2001 24.5439C23.3008 24.5439 27.5812 23.6686 29.5584 22.0323V26.1345C29.5584 27.7618 25.3086 29.57 19.2001 29.57C13.0933 29.57 8.83148 27.7616 8.8291 26.1345V22.0323C10.8064 23.6686 15.0994 24.5439 19.2001 24.5439Z" fill="#FBF9FF"/>
<g filter="url(#filter0_i_5161_11846)">
<ellipse cx="26.6789" cy="19.6159" rx="0.767753" ry="0.767753" fill="#D9D9D9"/>
</g>
<ellipse cx="10.9406" cy="25.758" rx="0.767753" ry="0.767753" fill="#6817C5"/>
<g filter="url(#filter1_i_5161_11846)">
<ellipse cx="26.6799" cy="25.9499" rx="0.767753" ry="0.767753" fill="#D9D9D9"/>
</g>
</g>
<mask id="mask0_5161_11846" style="mask-type:alpha" maskUnits="userSpaceOnUse" x="8" y="10" width="22" height="20">
<g clip-path="url(#clip1_5161_11846)">
<path fill-rule="evenodd" clip-rule="evenodd" d="M19.2001 10.4155C13.0916 10.4155 8.8291 12.2381 8.8291 13.8654C8.8291 15.4929 13.0917 17.297 19.2001 17.297C25.3085 17.297 29.5584 15.4927 29.5584 13.8654C29.5584 12.2381 25.3085 10.4155 19.2001 10.4155ZM29.5584 15.8977C27.5812 17.534 23.3008 18.4073 19.2001 18.4073C15.0994 18.4073 10.8064 17.534 8.8291 15.8977V19.9999C8.83148 21.627 13.0933 23.4333 19.2001 23.4333C25.3086 23.4333 29.5584 21.6272 29.5584 19.9999V15.8977ZM19.2001 24.5439C23.3008 24.5439 27.5812 23.6686 29.5584 22.0323V26.1345C29.5584 27.7618 25.3086 29.57 19.2001 29.57C13.0933 29.57 8.83148 27.7616 8.8291 26.1345V22.0323C10.8064 23.6686 15.0994 24.5439 19.2001 24.5439Z" fill="#FBF9FF"/>
<ellipse cx="26.6789" cy="19.6159" rx="0.767753" ry="0.767753" fill="#6817C5"/>
<ellipse cx="10.9406" cy="25.758" rx="0.767753" ry="0.767753" fill="#6817C5"/>
<ellipse cx="26.6799" cy="25.9499" rx="0.767753" ry="0.767753" fill="#6817C5"/>
</g>
</mask>
<g mask="url(#mask0_5161_11846)">
<path d="M8.54084 30.3642L8.25293 15.585L11.228 16.2567C11.8038 20.2874 12.3604 22.2068 15.6426 25.6617C18.9247 29.1166 22.1685 30.6521 22.1685 30.6521L8.54084 30.3642Z" fill="#D9D9D9"/>
</g>
<g clip-path="url(#clip2_5161_11846)">
<path d="M138.631 30.0597C142.058 30.0597 144.958 27.892 144.958 24.4939C144.958 21.7696 143.171 20.0706 141.413 19.6312C142.937 18.9574 144.46 17.2877 144.46 14.9735C144.46 11.7219 141.882 9.5542 138.279 9.5542H127.499V30.0597H138.631ZM129.637 11.5169H137.84C140.623 11.5169 142.292 12.8937 142.292 14.9735C142.292 17.4049 140.623 18.6938 137.84 18.6938H129.637V11.5169ZM129.637 20.6565H138.045C140.945 20.6565 142.79 22.0333 142.79 24.3768C142.79 26.5738 140.945 28.0971 138.045 28.0971H129.637V20.6565ZM153.41 30.3527C156.574 30.3527 158.771 29.0637 159.62 27.6869C159.62 28.1263 159.679 29.3274 159.825 30.0597H161.671C161.554 29.0344 161.466 27.7162 161.466 26.8374V20.6858C161.466 17.4049 159.122 15.12 154.728 15.12C151.096 15.12 148.518 16.9948 148.225 19.514H150.276C150.539 17.8443 152.238 16.7897 154.494 16.7897H154.963C157.775 16.7897 159.474 18.1372 159.474 20.6272V21.2131L153.322 21.5646C150.246 21.7696 147.815 23 147.815 25.9879C147.815 28.5072 149.719 30.3527 153.41 30.3527ZM153.615 28.6829C150.92 28.6829 149.836 27.5405 149.836 25.8707C149.836 24.2889 150.979 23.3222 154.26 23.1171L159.474 22.8535V24.1424C159.474 27.0425 156.574 28.6829 154.025 28.6829H153.615ZM172.646 30.3527C176.483 30.3527 179.237 28.2435 179.647 25.3727H177.596C177.157 27.2475 175.312 28.6829 172.851 28.6829H172.441C168.662 28.6829 166.816 25.8707 166.816 22.7363C166.816 19.6019 168.662 16.7897 172.441 16.7897H172.851C175.312 16.7897 177.186 17.9908 177.596 20.0999H179.647C179.237 17.0241 176.483 15.12 172.646 15.12C167.812 15.12 164.795 18.4595 164.795 22.7363C164.795 27.2182 167.578 30.3527 172.646 30.3527ZM197.82 30.0597L189.823 21.4474L197.439 15.4129H194.481L185.077 23.0878V9.5542H183.085V30.0597H185.077V25.197L188.27 22.6484L195.037 30.0597H197.82ZM205.718 30.3527C208.852 30.3527 210.815 28.9466 211.811 27.3061V30.0597H213.803V15.4129H211.811V22.9414C211.811 26.5445 209.233 28.6829 206.392 28.6829H205.982C203.081 28.6829 201.88 26.9839 201.88 23.8788V15.4129H199.888V24.5232C199.888 28.0385 201.939 30.3527 205.718 30.3527ZM220.294 35.9184V27.7455C221.319 29.2102 223.34 30.3527 226.446 30.3527C230.722 30.3527 234.15 27.7455 234.15 22.7363C234.15 17.9908 230.927 15.12 226.358 15.12C223.868 15.12 221.378 16.1746 220.294 17.8443V15.4129H218.302V35.9184H220.294ZM226.123 28.6829C222.842 28.6829 220.294 26.5738 220.294 22.7363C220.294 18.8989 222.842 16.7897 226.123 16.7897H226.533C229.814 16.7897 232.129 18.8989 232.129 22.7363C232.129 26.5738 229.814 28.6829 226.533 28.6829H226.123ZM243.162 30.3527C247.234 30.3527 249.636 28.8001 249.636 26.1637C249.636 23.703 247.82 22.4727 244.92 21.9161L242.635 21.4767C239.794 20.9201 239.12 20.4514 239.12 19.1332C239.12 17.9029 240.467 16.7897 242.957 16.7897H243.367C246.209 16.7897 247.703 18.1372 247.879 19.807H249.929C249.695 16.9655 247.586 15.12 243.192 15.12C239.852 15.12 237.099 16.4675 237.099 19.3676C237.099 21.7696 238.885 22.7949 241.756 23.3515L244.188 23.8202C246.648 24.2889 247.615 24.9333 247.615 26.3101C247.615 27.8334 245.975 28.6829 243.367 28.6829H242.957C240.614 28.6829 238.622 27.7455 238.446 25.6657H236.396C236.571 28.5365 238.915 30.3527 243.162 30.3527Z" fill="black"/>
</g>
<path fill-rule="evenodd" clip-rule="evenodd" d="M51.2942 28.5919L51.2927 28.5909C49.4457 27.3325 48.5123 25.4573 48.4727 23.0369L48.4648 22.5605H53.4652L53.4871 23.0062C53.5361 24.003 53.9557 24.7217 54.7564 25.2181C55.5944 25.7376 56.7547 26.0195 58.2777 26.0195H58.7277C60.3029 26.0195 61.3342 25.802 61.9111 25.4433C62.5113 25.0703 62.7304 24.668 62.7304 24.2385C62.7304 23.7673 62.5351 23.3897 62.0866 23.0757L62.0836 23.0736L62.0805 23.0714C61.6299 22.7451 60.8032 22.4584 59.5257 22.2547L59.5231 22.2543L56.4571 21.748C54.1735 21.3674 52.427 20.7203 51.2834 19.7605L51.2818 19.7592L51.2803 19.7578C50.1178 18.7645 49.5693 17.3143 49.5693 15.4926C49.5693 14.3844 49.8891 13.3485 50.5186 12.3942C51.1612 11.4199 52.1507 10.6569 53.4464 10.0871C54.7642 9.4887 56.4198 9.20264 58.3902 9.20264C61.1879 9.20264 63.4534 9.79604 65.1352 11.0368C66.8224 12.2626 67.7689 13.9616 67.9684 16.0957L68.0163 16.6081H63.0142L62.9595 16.2019C62.8472 15.3672 62.4404 14.7395 61.7141 14.2876C60.9686 13.8237 59.9482 13.5709 58.6152 13.5709H58.1653C56.8335 13.5709 55.8779 13.7734 55.2481 14.1278C54.6216 14.4912 54.4157 14.8671 54.4157 15.2395C54.4157 15.8021 54.6104 16.159 54.9663 16.3962C55.391 16.6793 56.101 16.9277 57.1462 17.1114L60.2934 17.6172C62.6439 17.9994 64.4669 18.7154 65.7032 19.8098C66.9535 20.9167 67.5767 22.3598 67.5767 24.0979C67.5767 26.1191 66.7664 27.7112 65.1509 28.8155L65.1498 28.8162C63.5771 29.8849 61.3501 30.3877 58.5308 30.3877C55.5329 30.3877 53.1056 29.8062 51.2956 28.5929L51.2942 28.5919Z" fill="black"/>
<path fill-rule="evenodd" clip-rule="evenodd" d="M70.4166 26.7411L70.4142 26.7372C69.6676 25.5468 69.302 24.1644 69.302 22.6074C69.302 21.0506 69.6676 19.676 70.4161 18.5026L70.4172 18.5009C71.1783 17.3191 72.2203 16.4096 73.5314 15.7739C74.8433 15.1378 76.3497 14.827 78.0386 14.827C79.7274 14.827 81.2338 15.1378 82.5457 15.7739C83.8563 16.4093 84.8896 17.319 85.6323 18.5017C86.3998 19.6748 86.7751 21.0498 86.7751 22.6074C86.7751 24.1664 86.3991 25.5501 85.6325 26.7409C84.8891 27.906 83.8554 28.8058 82.5457 29.4409C81.2338 30.0769 79.7274 30.3877 78.0386 30.3877C76.3497 30.3877 74.8433 30.0769 73.5314 29.4409C72.2224 28.8062 71.1808 27.9075 70.4192 26.745L70.4166 26.7411ZM80.2073 19.2522L80.2003 19.2482C79.6414 18.9359 78.9908 18.7734 78.2354 18.7734H77.8417C77.0865 18.7734 76.4242 18.9358 75.8437 19.251L75.8415 19.2521L75.8394 19.2533C75.2807 19.5491 74.8376 19.9744 74.5055 20.539C74.1812 21.0903 74.0078 21.773 74.0078 22.6074C74.0078 23.4194 74.1797 24.1045 74.507 24.6783C74.8388 25.2414 75.282 25.6764 75.8417 25.9907C76.4223 26.2878 77.0856 26.4413 77.8417 26.4413H78.2354C78.994 26.4413 79.6472 26.2869 80.2074 25.9908C80.7876 25.6753 81.2393 25.2397 81.5701 24.6783C81.8974 24.1044 82.0694 23.4194 82.0694 22.6074C82.0694 21.773 81.8959 21.0903 81.5716 20.539C81.2415 19.9779 80.7917 19.5527 80.2146 19.2559L80.2073 19.2522Z" fill="black"/>
<path fill-rule="evenodd" clip-rule="evenodd" d="M88.9115 30.1065V9.48385H93.5891V30.1065H88.9115Z" fill="black"/>
<path fill-rule="evenodd" clip-rule="evenodd" d="M96.3747 15.5769H101.052V30.1065H96.3747V15.5769Z" fill="black"/>
<path fill-rule="evenodd" clip-rule="evenodd" d="M106.876 29.4637L106.873 29.4622C105.69 28.8405 104.746 27.9459 104.046 26.7866L104.045 26.7851L104.044 26.7835C103.338 25.5929 102.994 24.1948 102.994 22.6074C102.994 20.9337 103.335 19.5028 104.047 18.3424C104.748 17.1817 105.694 16.3037 106.883 15.7194C108.076 15.123 109.376 14.827 110.775 14.827C112.149 14.827 113.32 15.0392 114.265 15.4906C114.766 15.7253 115.21 15.9929 115.593 16.2956V9.48385H120.271V30.1065H115.593V28.9919C115.173 29.318 114.683 29.5927 114.13 29.8187L114.126 29.8202L114.122 29.8217C113.141 30.2023 112.041 30.3877 110.831 30.3877C109.394 30.3877 108.072 30.0819 106.876 29.4637ZM115.068 24.7302L115.069 24.7285C115.411 24.1585 115.593 23.4582 115.593 22.6074C115.593 21.7353 115.41 21.0383 115.072 20.4915L115.07 20.4872L115.067 20.4828C114.738 19.9238 114.291 19.5103 113.72 19.2325L113.712 19.229L113.705 19.2252C113.144 18.9283 112.49 18.7734 111.731 18.7734H111.337C110.244 18.7734 109.382 19.1109 108.712 19.7651L108.71 19.7672L108.707 19.7692C108.058 20.3869 107.7 21.307 107.7 22.6074C107.7 23.9057 108.057 24.8378 108.71 25.4757C109.379 26.1116 110.242 26.4413 111.337 26.4413H111.731C112.493 26.4413 113.15 26.2946 113.712 26.0139C114.288 25.7172 114.737 25.2924 115.067 24.732L115.068 24.7302Z" fill="black"/>
<path fill-rule="evenodd" clip-rule="evenodd" d="M98.632 14.1185C97.0593 14.1185 95.9745 13.0336 95.9745 11.6953C95.9745 10.357 97.0593 9.27214 98.632 9.27214H98.7445C100.317 9.27214 101.402 10.357 101.402 11.6953C101.402 13.0336 100.317 14.1185 98.7445 14.1185H98.632Z" fill="black"/>
<defs>
<filter id="filter0_i_5161_11846" x="25.9111" y="18.8481" width="1.53516" height="3.53564" filterUnits="userSpaceOnUse" color-interpolation-filters="sRGB">
<feFlood flood-opacity="0" result="BackgroundImageFix"/>
<feBlend mode="normal" in="SourceGraphic" in2="BackgroundImageFix" result="shape"/>
<feColorMatrix in="SourceAlpha" type="matrix" values="0 0 0 0 0 0 0 0 0 0 0 0 0 0 0 0 0 0 127 0" result="hardAlpha"/>
<feOffset dy="2"/>
<feGaussianBlur stdDeviation="2"/>
<feComposite in2="hardAlpha" operator="arithmetic" k2="-1" k3="1"/>
<feColorMatrix type="matrix" values="0 0 0 0 0.113725 0 0 0 0 0.0117647 0 0 0 0 0.235294 0 0 0 0.08 0"/>
<feBlend mode="normal" in2="shape" result="effect1_innerShadow_5161_11846"/>
</filter>
<filter id="filter1_i_5161_11846" x="25.9121" y="25.1821" width="1.53516" height="3.53564" filterUnits="userSpaceOnUse" color-interpolation-filters="sRGB">
<feFlood flood-opacity="0" result="BackgroundImageFix"/>
<feBlend mode="normal" in="SourceGraphic" in2="BackgroundImageFix" result="shape"/>
<feColorMatrix in="SourceAlpha" type="matrix" values="0 0 0 0 0 0 0 0 0 0 0 0 0 0 0 0 0 0 127 0" result="hardAlpha"/>
<feOffset dy="2"/>
<feGaussianBlur stdDeviation="2"/>
<feComposite in2="hardAlpha" operator="arithmetic" k2="-1" k3="1"/>
<feColorMatrix type="matrix" values="0 0 0 0 0.113725 0 0 0 0 0.0117647 0 0 0 0 0.235294 0 0 0 0.08 0"/>
<feBlend mode="normal" in2="shape" result="effect1_innerShadow_5161_11846"/>
</filter>
<clipPath id="clip0_5161_11846">
<rect width="20.7293" height="19.1938" fill="white" transform="translate(8.8291 10.4028)"/>
</clipPath>
<clipPath id="clip1_5161_11846">
<rect width="20.7293" height="19.1938" fill="white" transform="translate(8.8291 10.4028)"/>
</clipPath>
<clipPath id="clip2_5161_11846">
<rect width="122.564" height="26.4814" fill="white" transform="translate(127.44 9.43701)"/>
</clipPath>
</defs>
</svg>
