<svg width="267" height="40" viewBox="0 0 267 40" fill="none" xmlns="http://www.w3.org/2000/svg">
    <g clip-path="url(#nro1i7nzta)">
        <mask id="2we1w5tkeb" style="mask-type:luminance" maskUnits="userSpaceOnUse" x="135" y="9" width="132" height="29">
            <path d="M266.25 9H135.5v28.25h130.75V9z" fill="#fff"/>
        </mask>
        <g mask="url(#2we1w5tkeb)">
            <path d="M147.438 31c3.656 0 6.75-2.313 6.75-5.938 0-2.906-1.907-4.718-3.782-5.187 1.625-.719 3.25-2.5 3.25-4.969 0-3.469-2.75-5.781-6.594-5.781h-11.5V31h11.876zm-9.594-19.781h8.75c2.968 0 4.75 1.469 4.75 3.687 0 2.594-1.782 3.969-4.75 3.969h-8.75v-7.656zm0 9.75h8.968c3.094 0 5.063 1.468 5.063 3.968 0 2.344-1.969 3.97-5.063 3.97h-8.968v-7.938zm25.36 10.343c3.375 0 5.719-1.375 6.625-2.843 0 .468.062 1.75.219 2.531h1.968c-.125-1.094-.218-2.5-.218-3.438V21c0-3.5-2.5-5.938-7.188-5.938-3.875 0-6.625 2-6.937 4.688h2.187c.281-1.781 2.094-2.906 4.5-2.906h.5c3 0 4.813 1.437 4.813 4.093v.625l-6.563.375c-3.281.22-5.875 1.532-5.875 4.72 0 2.687 2.031 4.655 5.969 4.655zm.219-1.78c-2.875 0-4.032-1.22-4.032-3 0-1.688 1.219-2.72 4.719-2.938l5.563-.282v1.375c0 3.094-3.094 4.844-5.813 4.844h-.437zm20.302 1.78c4.093 0 7.031-2.25 7.468-5.312h-2.187c-.469 2-2.438 3.531-5.063 3.531h-.437c-4.031 0-6-3-6-6.343 0-3.344 1.969-6.344 6-6.344h.437c2.625 0 4.625 1.281 5.063 3.531h2.187c-.437-3.281-3.375-5.313-7.468-5.313-5.157 0-8.375 3.563-8.375 8.126 0 4.78 2.968 8.125 8.375 8.125zM210.58 31l-8.531-9.188 8.125-6.437h-3.156l-10.032 8.188V9.124h-2.125V31h2.125v-5.188l3.407-2.718L207.611 31h2.969zm8.425.313c3.344 0 5.438-1.5 6.5-3.25V31h2.125V15.375h-2.125v8.031c0 3.844-2.75 6.125-5.781 6.125h-.438c-3.093 0-4.375-1.812-4.375-5.125v-9.031h-2.125v9.719c0 3.75 2.188 6.218 6.219 6.218zm15.55 5.937v-8.719c1.093 1.563 3.25 2.782 6.562 2.782 4.563 0 8.219-2.782 8.219-8.125 0-5.063-3.438-8.125-8.313-8.125-2.656 0-5.312 1.124-6.468 2.906v-2.594h-2.125V37.25h2.125zm6.218-7.719c-3.5 0-6.218-2.25-6.218-6.343 0-4.094 2.718-6.344 6.218-6.344h.438c3.5 0 5.969 2.25 5.969 6.343 0 4.094-2.469 6.344-5.969 6.344h-.438zm18.177 1.782c4.345 0 6.908-1.657 6.908-4.47 0-2.624-1.938-3.937-5.033-4.53l-2.437-.47c-3.03-.593-3.751-1.093-3.751-2.5 0-1.312 1.438-2.5 4.096-2.5h.437c3.03 0 4.625 1.438 4.813 3.22h2.187c-.25-3.032-2.5-5-7.187-5-3.563 0-6.501 1.437-6.501 4.53 0 2.563 1.906 3.657 4.968 4.25l2.595.5c2.625.5 3.655 1.188 3.655 2.657 0 1.625-1.75 2.531-4.53 2.531h-.437c-2.5 0-4.626-1-4.813-3.218h-2.188c.188 3.062 2.688 5 7.218 5z" fill="#fff"/>
        </g>
        <path fill-rule="evenodd" clip-rule="evenodd" d="M54.268 29.434h-.001c-1.97-1.343-2.966-3.344-3.009-5.926L51.25 23h5.334l.024.476c.052 1.063.5 1.83 1.354 2.359.894.554 2.131.855 3.756.855h.48c1.68 0 2.78-.232 3.396-.615.64-.398.874-.827.874-1.285 0-.503-.208-.905-.687-1.24l-.003-.003-.003-.002c-.48-.348-1.363-.654-2.726-.871h-.002l-3.271-.54c-2.436-.407-4.3-1.097-5.52-2.121v-.001l-.002-.002c-1.24-1.06-1.826-2.607-1.826-4.55 0-1.182.342-2.287 1.013-3.305.685-1.04 1.741-1.854 3.123-2.461 1.406-.639 3.172-.944 5.274-.944 2.985 0 5.402.633 7.196 1.957 1.8 1.307 2.81 3.12 3.022 5.396l.051.547h-5.336l-.058-.433c-.12-.89-.554-1.56-1.329-2.042-.795-.495-1.884-.765-3.306-.765h-.48c-1.42 0-2.44.216-3.112.594-.668.388-.888.789-.888 1.186 0 .6.208.98.587 1.234.454.302 1.211.567 2.326.763l3.357.54c2.508.407 4.453 1.171 5.772 2.339 1.334 1.18 1.998 2.72 1.998 4.574 0 2.156-.864 3.855-2.588 5.033-1.678 1.14-4.054 1.677-7.062 1.677-3.198 0-5.787-.62-7.718-1.915h-.002zM74.668 27.46l-.003-.005c-.796-1.27-1.186-2.744-1.186-4.405 0-1.66.39-3.127 1.188-4.379l.001-.002c.813-1.26 1.924-2.23 3.323-2.909 1.4-.678 3.006-1.01 4.808-1.01 1.801 0 3.408.332 4.808 1.01 1.398.678 2.5 1.648 3.293 2.91.819 1.252 1.219 2.718 1.219 4.38 0 1.663-.401 3.14-1.219 4.41-.793 1.242-1.896 2.203-3.293 2.88-1.4.678-3.007 1.01-4.808 1.01-1.802 0-3.409-.332-4.808-1.01-1.397-.677-2.508-1.636-3.32-2.876l-.003-.004zm10.444-7.99-.007-.003c-.596-.334-1.29-.507-2.096-.507h-.42c-.806 0-1.512.173-2.132.51h-.002l-.002.002a3.549 3.549 0 0 0-1.423 1.371c-.346.589-.531 1.317-.531 2.207 0 .866.183 1.597.532 2.21.354.6.827 1.064 1.424 1.4.62.316 1.327.48 2.134.48h.42c.809 0 1.506-.165 2.103-.48a3.707 3.707 0 0 0 1.454-1.4c.35-.613.533-1.344.533-2.21 0-.89-.185-1.618-.531-2.207a3.5 3.5 0 0 0-1.448-1.368l-.008-.004zM94.398 31.05v-22h4.99v22h-4.99zM102.359 15.55h4.99v15.5h-4.99v-15.5zM113.562 30.364l-.003-.002a7.589 7.589 0 0 1-3.016-2.854l-.001-.001-.001-.002c-.753-1.27-1.12-2.762-1.12-4.455 0-1.785.363-3.312 1.123-4.55.748-1.238 1.758-2.175 3.025-2.798 1.273-.636 2.66-.952 4.152-.952 1.466 0 2.716.226 3.724.708.534.25 1.008.536 1.416.859V9.05h4.99v22h-4.99v-1.19c-.448.349-.97.642-1.561.883l-.004.002-.004.001c-1.047.406-2.22.604-3.511.604-1.533 0-2.943-.326-4.219-.986zm8.739-5.05.001-.001c.365-.608.559-1.355.559-2.263 0-.93-.195-1.674-.555-2.257l-.003-.005-.003-.005a3.31 3.31 0 0 0-1.437-1.333l-.008-.004-.008-.004c-.598-.317-1.296-.482-2.106-.482h-.42c-1.166 0-2.085.36-2.801 1.058l-.002.002-.002.002c-.693.66-1.075 1.64-1.075 3.028 0 1.385.381 2.38 1.077 3.06.714.678 1.635 1.03 2.803 1.03h.42c.814 0 1.514-.157 2.114-.456a3.499 3.499 0 0 0 1.445-1.367l.001-.003zM104.768 13.994c-1.678 0-2.835-1.157-2.835-2.585s1.157-2.585 2.835-2.585h.12c1.677 0 2.835 1.157 2.835 2.585s-1.158 2.585-2.835 2.585h-.12z" fill="#fff"/>
        <path d="M20 40c11.046 0 20-8.954 20-20S31.046 0 20 0 0 8.954 0 20s8.954 20 20 20z" fill="#6817C5"/>
        <mask id="wogfq6e4mc" style="mask-type:luminance" maskUnits="userSpaceOnUse" x="9" y="10" width="22" height="20">
            <path d="M30.8 10H9.2v20h21.6V10z" fill="#fff"/>
        </mask>
        <g mask="url(#wogfq6e4mc)">
            <path fill-rule="evenodd" clip-rule="evenodd" d="M20.007 10.013c-6.365 0-10.807 1.9-10.807 3.595 0 1.696 4.442 3.576 10.807 3.576S30.8 15.304 30.8 13.608c0-1.696-4.428-3.595-10.793-3.595zM30.8 15.726c-2.06 1.705-6.52 2.615-10.793 2.615S11.26 17.43 9.2 15.726V20c.003 1.696 4.444 3.578 10.807 3.578 6.365 0 10.793-1.882 10.793-3.578v-4.274zm-10.793 9.009c4.273 0 8.733-.912 10.793-2.617v4.274c0 1.696-4.428 3.58-10.793 3.58-6.364 0-10.804-1.884-10.807-3.58v-4.274c2.06 1.705 6.534 2.617 10.807 2.617z" fill="#FBF9FF"/>
            <g filter="url(#4sq1g5kbdd)">
                <path d="M27.8 20.4a.8.8 0 1 0 0-1.6.8.8 0 0 0 0 1.6z" fill="#D9D9D9"/>
            </g>
            <path d="M11.4 26.8a.8.8 0 1 0 0-1.6.8.8 0 0 0 0 1.6z" fill="#6817C5"/>
            <g filter="url(#i3ewukh69e)">
                <path d="M27.8 27a.8.8 0 1 0 0-1.6.8.8 0 0 0 0 1.6z" fill="#D9D9D9"/>
            </g>
        </g>
        <mask id="17pocb526g" style="mask-type:alpha" maskUnits="userSpaceOnUse" x="9" y="10" width="22" height="20">
            <mask id="oz868nt7df" style="mask-type:luminance" maskUnits="userSpaceOnUse" x="9" y="10" width="22" height="20">
                <path d="M30.8 10H9.2v20h21.6V10z" fill="#fff"/>
            </mask>
            <g mask="url(#oz868nt7df)">
                <path fill-rule="evenodd" clip-rule="evenodd" d="M20.006 10.013c-6.365 0-10.807 1.9-10.807 3.595 0 1.696 4.442 3.576 10.807 3.576s10.793-1.88 10.793-3.576c0-1.696-4.428-3.595-10.793-3.595zm10.793 5.713c-2.06 1.705-6.52 2.615-10.793 2.615s-8.746-.91-10.807-2.615V20c.003 1.696 4.444 3.578 10.807 3.578 6.365 0 10.793-1.882 10.793-3.578v-4.274zm-10.793 9.009c4.273 0 8.733-.912 10.793-2.617v4.274c0 1.696-4.428 3.58-10.793 3.58-6.364 0-10.804-1.884-10.807-3.58v-4.274c2.06 1.705 6.534 2.617 10.807 2.617z" fill="#FBF9FF"/>
                <path d="M27.799 20.4a.8.8 0 1 0 0-1.6.8.8 0 0 0 0 1.6zM11.4 26.8a.8.8 0 1 0 0-1.6.8.8 0 0 0 0 1.6zM27.8 27a.8.8 0 1 0 0-1.6.8.8 0 0 0 0 1.6z" fill="#6817C5"/>
            </g>
        </mask>
        <g mask="url(#17pocb526g)">
            <path d="m8.9 30.8-.3-15.4 3.1.7c.6 4.2 1.18 6.2 4.6 9.8 3.42 3.6 6.8 5.2 6.8 5.2l-14.2-.3z" fill="#D9D9D9"/>
        </g>
        <path fill-rule="evenodd" clip-rule="evenodd" d="M242.452 12.44c-3.57 0-5.728-2.118-5.742-5.19h2.015c.014 2.171 1.489 3.421 3.625 3.421h.233c2.117 0 3.262-.986 3.262-1.813v-.116h-3.335V6.973h3.872c.884 0 1.377.508 1.377 1.393v3.929h-1.914v-1.131c-.391.493-1.421 1.276-3.393 1.276zM242.467 2c-2.25 0-3.944.858-4.893 2.25h2.732c.563-.315 1.256-.481 2.044-.481h.233c2.102 0 2.827 1.03 2.929 1.856h2.102C247.469 3.566 245.715 2 242.467 2zm-31.224.1v7.453L206.052 2.1H203.5v10.15h2.001V4.667l5.278 7.583h2.465V2.1h-2.001zm11.089 7.134v-.768c0-2.19-1.421-3.611-3.799-3.611-2.03 0-4.089 1.262-4.089 3.712 0 2.537 1.813 3.828 4.162 3.828 1.899 0 3.364-.928 3.639-2.436h-1.957c-.203.566-.798.885-1.61.885h-.203c-.913 0-1.769-.522-2.015-1.61h5.872zm-2.015-1.479h-3.828c.246-.841.899-1.348 1.928-1.348h.203c.87 0 1.639.362 1.697 1.348zm10.099 4.495-2.958-3.683 1.442-1.783.189-.233h2.666v4.104c0 1.015.536 1.595 1.856 1.595h2.889v-1.595h-2.237c-.435 0-.58-.145-.58-.58V6.55h6.067v.396c0 .02.025.032.041.019l1.436-1.197a.025.025 0 0 0 0-.038l-1.436-1.197a.025.025 0 0 0-.041.02V5h-6.067V2.65h-1.928V5H228.067l-1.74 2.146L224.601 5h-2.334l2.885 3.596-2.958 3.654h2.277l1.812-2.233 1.798 2.233h2.335zm26.214-3.016v-.768c0-2.19-1.42-3.611-3.797-3.611-2.03 0-4.091 1.262-4.091 3.712 0 2.537 1.813 3.828 4.163 3.828 1.897 0 3.363-.928 3.638-2.436h-1.958c-.202.566-.798.885-1.608.885h-.204c-.913 0-1.768-.522-2.015-1.61h5.872zm-2.015-1.479h-3.827c.245-.841.897-1.348 1.927-1.348h.202c.87 0 1.641.362 1.698 1.348zm3.088 4.495h1.927V8.596c0-1.32 1.002-2.19 2.075-2.19h.203c1.015 0 1.464.726 1.464 1.784v4.06h1.928V7.842c0-1.725-1.015-2.987-3.102-2.987-1.348 0-2.133.595-2.568 1.204V5h-1.927v7.25z" fill="#DFDFDF"/>
    </g>
    <defs>
        <filter id="4sq1g5kbdd" x="27" y="18.8" width="1.6" height="3.6" filterUnits="userSpaceOnUse" color-interpolation-filters="sRGB">
            <feFlood flood-opacity="0" result="BackgroundImageFix"/>
            <feBlend in="SourceGraphic" in2="BackgroundImageFix" result="shape"/>
            <feColorMatrix in="SourceAlpha" values="0 0 0 0 0 0 0 0 0 0 0 0 0 0 0 0 0 0 127 0" result="hardAlpha"/>
            <feOffset dy="2"/>
            <feGaussianBlur stdDeviation="2"/>
            <feComposite in2="hardAlpha" operator="arithmetic" k2="-1" k3="1"/>
            <feColorMatrix values="0 0 0 0 0.113725 0 0 0 0 0.0117647 0 0 0 0 0.235294 0 0 0 0.08 0"/>
            <feBlend in2="shape" result="effect1_innerShadow_5_281"/>
        </filter>
        <filter id="i3ewukh69e" x="27" y="25.4" width="1.6" height="3.6" filterUnits="userSpaceOnUse" color-interpolation-filters="sRGB">
            <feFlood flood-opacity="0" result="BackgroundImageFix"/>
            <feBlend in="SourceGraphic" in2="BackgroundImageFix" result="shape"/>
            <feColorMatrix in="SourceAlpha" values="0 0 0 0 0 0 0 0 0 0 0 0 0 0 0 0 0 0 127 0" result="hardAlpha"/>
            <feOffset dy="2"/>
            <feGaussianBlur stdDeviation="2"/>
            <feComposite in2="hardAlpha" operator="arithmetic" k2="-1" k3="1"/>
            <feColorMatrix values="0 0 0 0 0.113725 0 0 0 0 0.0117647 0 0 0 0 0.235294 0 0 0 0.08 0"/>
            <feBlend in2="shape" result="effect1_innerShadow_5_281"/>
        </filter>
        <clipPath id="nro1i7nzta">
            <path fill="#fff" d="M0 0h266.25v40H0z"/>
        </clipPath>
    </defs>
</svg>
