<svg xmlns="http://www.w3.org/2000/svg" viewBox="0 0 240.01 26.42"><path d="M0,.37H9q5.25,0,7.78,1.55a5.28,5.28,0,0,1,2.54,4.85,6.18,6.18,0,0,1-1.1,3.69,5,5,0,0,1-2.92,2v.17a6,6,0,0,1,3.46,2.11,6.34,6.34,0,0,1,1.07,3.83,6.58,6.58,0,0,1-2.62,5.52,11.54,11.54,0,0,1-7.17,2H0Zm6.94,9.86H9a3.8,3.8,0,0,0,2.31-.61,2.15,2.15,0,0,0,.81-1.83c0-1.44-1.09-2.17-3.27-2.17H6.94Zm0,5.08v5.4H9.39c2.16,0,3.25-.92,3.25-2.75a2.34,2.34,0,0,0-.87-2,4,4,0,0,0-2.52-.69Z" style="fill:#fff"/><path d="M38,26.07l-1.26-4.82H28.42l-1.3,4.82H19.49L27.87.26h9.27l8.49,25.81Zm-2.7-10.51-1.11-4.22c-.26-.94-.57-2.15-.94-3.64s-.61-2.56-.73-3.2c-.11.6-.31,1.58-.63,3s-1,4.08-2.06,8.11Z" style="fill:#fff"/><path d="M57.4,5.7a4.43,4.43,0,0,0-3.87,2,9.75,9.75,0,0,0-1.39,5.59q0,7.42,5.64,7.42a11.82,11.82,0,0,0,3.31-.47,32.75,32.75,0,0,0,3.22-1.15V25A17.81,17.81,0,0,1,57,26.42q-5.82,0-8.92-3.38T45,13.29a15.56,15.56,0,0,1,1.5-7,10.69,10.69,0,0,1,4.32-4.65A13,13,0,0,1,57.47,0a18.21,18.21,0,0,1,8,1.81L63.3,7.28a24,24,0,0,0-2.84-1.13A10.11,10.11,0,0,0,57.4,5.7Z" style="fill:#fff"/><path d="M88.79,26.07H81l-5.08-9.83-2.06,1.23v8.6h-7V.37h7V11.53a29.91,29.91,0,0,1,2.13-3.29L81.33.37h7.6L80.82,11.88Z" style="fill:#fff"/><path d="M111.53.37V15.84c0,3.36-1,6-2.85,7.81s-4.65,2.77-8.24,2.77-6.19-.9-8.07-2.69S89.54,19.36,89.54,16V.37h7V15.45a6.18,6.18,0,0,0,1,4,4.4,4.4,0,0,0,6.09,0,6.55,6.55,0,0,0,1-4V.37Z" style="fill:#fff"/><path d="M132.53,8.54A8.64,8.64,0,0,1,130,15.2c-1.7,1.56-4.1,2.34-7.22,2.34h-2v8.53h-6.94V.37h8.89c3.25,0,5.68.71,7.31,2.13A7.57,7.57,0,0,1,132.53,8.54Zm-11.71,3.34h1.26a3.43,3.43,0,0,0,2.49-.88,3.15,3.15,0,0,0,.92-2.42c0-1.74-1-2.6-2.88-2.6h-1.79Z" style="fill:#fff"/><path d="M137.41.37h7.05q4.75,0,7,1.62a5.61,5.61,0,0,1,2.23,4.88,5.28,5.28,0,0,1-1.36,3.72,6.63,6.63,0,0,1-4,1.91v.1a7.82,7.82,0,0,1,4.53,2,5.7,5.7,0,0,1,1.45,4.14A6.63,6.63,0,0,1,152,24.15a10.32,10.32,0,0,1-6.68,1.92h-7.87Zm1.79,11.44h5.66c2.41,0,4.17-.4,5.26-1.2a4.35,4.35,0,0,0,1.65-3.77,4.06,4.06,0,0,0-1.86-3.73A10.59,10.59,0,0,0,144.38,2H139.2Zm0,1.58v11.1h6.05q7.13,0,7.13-5.8,0-5.3-7.52-5.3Z" style="fill:#fff"/><path d="M176.12.37V17a9.2,9.2,0,0,1-2.57,6.92,9.79,9.79,0,0,1-7.15,2.5,9.45,9.45,0,0,1-7-2.5,9.45,9.45,0,0,1-2.51-7V.37h1.82V17a7.81,7.81,0,0,0,2,5.77,7.84,7.84,0,0,0,5.82,2.07,7.71,7.71,0,0,0,5.7-2,7.68,7.68,0,0,0,2-5.64V.37Z" style="fill:#fff"/><path d="M198.94,13q0,6.48-3.39,9.78t-10,3.32h-6.15V.37h6.94q6.15,0,9.36,3.22T198.94,13ZM197,13q0-5.52-2.81-8.3C192.32,2.88,189.57,2,186,2h-4.73V24.49h4.25Q197,24.49,197,13Z" style="fill:#fff"/><path d="M221.6,13q0,6.48-3.39,9.78t-10,3.32h-6.15V.37H209q6.15,0,9.36,3.22T221.6,13Zm-1.95.07c0-3.68-.94-6.45-2.8-8.3S212.23,2,208.61,2h-4.73V24.49h4.26Q219.65,24.49,219.65,13Z" style="fill:#fff"/><path d="M230.55,14.43,238.07.37H240l-8.56,15.77v9.93H229.6V16.28L221,.37h2.06Z" style="fill:#fff"/></svg>