<svg xmlns="http://www.w3.org/2000/svg" xmlns:xlink="http://www.w3.org/1999/xlink" width="15" height="15" viewBox="0 0 15 15"><defs><clipPath id="a"><circle cx="7.5" cy="7.5" r="7.5" transform="translate(0 0)" fill="none" stroke="#d2d2d2" stroke-width="1"/></clipPath><clipPath id="c"><use xlink:href="#b"/></clipPath><clipPath id="e"><use xlink:href="#d"/></clipPath><clipPath id="g"><use xlink:href="#f"/></clipPath><clipPath id="i"><use xlink:href="#h"/></clipPath><clipPath id="k"><use xlink:href="#j"/></clipPath></defs><g transform="translate(-838 -540)"><g transform="translate(838 540)" clip-path="url(#a)"><g transform="translate(3.571 3.571)" fill="none" stroke="#d2d2d2" stroke-width="0.5"><rect width="15.893" height="14.107" rx="2" stroke="none"/><rect x="0.25" y="0.25" width="15.393" height="13.607" rx="1.75" fill="none"/></g></g><g transform="translate(838 540)" fill="none" stroke="#d2d2d2" stroke-width="1"><circle cx="7.5" cy="7.5" r="7.5" stroke="none"/><circle cx="7.5" cy="7.5" r="7" fill="none"/></g><line y1="0.054" x2="10" transform="translate(842 546.446)" fill="none" stroke="#d2d2d2" stroke-width="0.5"/><g transform="translate(843.674 545)" fill="#d2d2d2" stroke="#d2d2d2" stroke-width="1"><ellipse cx="0.31" cy="0.31" rx="0.31" ry="0.31" stroke="none"/><ellipse cx="0.31" cy="0.31" rx="0.19" ry="0.19" fill="none"/></g><g transform="translate(844.974 545)" fill="#d2d2d2" stroke="#d2d2d2" stroke-width="1"><ellipse cx="0.31" cy="0.31" rx="0.31" ry="0.31" stroke="none"/><ellipse cx="0.31" cy="0.31" rx="0.19" ry="0.19" fill="none"/></g><g transform="translate(846.274 545)" fill="#d2d2d2" stroke="#d2d2d2" stroke-width="1"><ellipse cx="0.31" cy="0.31" rx="0.31" ry="0.31" stroke="none"/><ellipse cx="0.31" cy="0.31" rx="0.19" ry="0.19" fill="none"/></g><g transform="translate(842.987 547.5)" fill="#d2d2d2" stroke="#d2d2d2" stroke-width="1"><rect width="4.643" height="3.405" stroke="none"/><rect x="0.5" y="0.5" width="3.643" height="2.405" fill="none"/></g><g transform="translate(848.286 547.512)" fill="none" stroke="#d2d2d2" stroke-width="1"><rect id="b" width="3.951" height="0.5" stroke="none"/><path d="M0,0h3.95068359375M3.45068359375,0v0.5M3.95068359375,0.5h-3.95068359375M0.5,0.5v-0.5" fill="none" clip-path="url(#c)"/></g><g transform="translate(848.286 548.585)" fill="none" stroke="#d2d2d2" stroke-width="1"><rect id="d" width="3.951" height="0.5" stroke="none"/><path d="M0,0h3.95068359375M3.45068359375,0v0.5M3.95068359375,0.5h-3.95068359375M0.5,0.5v-0.5" fill="none" clip-path="url(#e)"/></g><g transform="translate(848.286 549.658)" fill="none" stroke="#d2d2d2" stroke-width="1"><rect id="f" width="3.405" height="0.5" stroke="none"/><path d="M0,0h3.404761791229248M2.904761791229248,0v0.5M3.404761791229248,0.5h-3.404761791229248M0.5,0.5v-0.5" fill="none" clip-path="url(#g)"/></g><g transform="translate(843.024 551.805)" fill="none" stroke="#d2d2d2" stroke-width="1"><rect id="h" width="7.583" height="0.5" stroke="none"/><path d="M0,0h7.583333492279053M7.083333492279053,0v0.5M7.583333492279053,0.5h-7.583333492279053M0.5,0.5v-0.5" fill="none" clip-path="url(#i)"/></g><g transform="translate(843 553.143)" fill="none" stroke="#d2d2d2" stroke-width="1"><rect id="j" width="6.81" height="0.5" stroke="none"/><path d="M0,0h6.809523582458496M6.309523582458496,0v0.5M6.809523582458496,0.5h-6.809523582458496M0.5,0.5v-0.5" fill="none" clip-path="url(#k)"/></g></g></svg>