<?xml version="1.0" encoding="utf-8"?>
<!-- Generator: Adobe Illustrator 23.0.4, SVG Export Plug-In . SVG Version: 6.00 Build 0)  -->
<svg version="1.1" id="Capa_1" xmlns="http://www.w3.org/2000/svg" xmlns:xlink="http://www.w3.org/1999/xlink" x="0px" y="0px"
	 viewBox="0 0 467.9 467.9" style="enable-background:new 0 0 467.9 467.9;" xml:space="preserve">
<style type="text/css">
	.st0{fill:#2EA2CC;}
</style>
<g>
	<path class="st0" d="M392.1,344.1c-6.6-5-16-3.7-21,2.9c-1,1.3-1.9,2.5-3,3.8c-15,18.4-35.3,33.4-60.3,44.5
		c-0.1,0.1-0.2,0.1-0.4,0.2c-39.5,18.8-85.6,21.4-129.9,7.3c-38.9-12.7-70.5-37.2-94-72.8c-17.5-28-26.6-58.4-27.3-90.5
		c0-0.8,0-1.6,0-2.3h18.4c6.9,0,10.4-8.4,5.5-13.3l-33.4-33.4c-3-3-8-3-11,0L2.3,223.7c-4.9,4.9-1.4,13.3,5.5,13.3h18.4
		c0.2,38.7,11,75.4,32,108.9c0.1,0.1,0.1,0.2,0.2,0.3c27.4,41.6,64.3,70.2,110,85c21.9,7,44.2,10.4,66.1,10.4
		c29.8,0,59-6.4,85.7-19.1c31.3-13.9,56.4-33.2,74.8-57.4C400,358.6,398.7,349.1,392.1,344.1z"/>
	<path class="st0" d="M460.1,233.9h-18.4c0-4.1-0.1-8.3-0.4-12.4c-1.9-32.4-11.6-64.3-27.9-92.3c-15.9-27.3-38.3-50.9-64.6-68.4
		C322,43,291,31.6,259.1,27.7c-35.4-4.3-71.5,0.6-104.2,14.1C122.8,55,94.3,76.3,72.3,103.4c-5.2,6.4-4.2,15.9,2.2,21.1
		c6.4,5.2,15.9,4.2,21.1-2.2c1.1-1.4,2.3-2.8,3.4-4.1c18.3-21.3,41.4-38,67.2-48.6c28-11.5,58.8-15.7,89.2-12
		c27.3,3.3,53.8,13.1,76.6,28.3c22.5,15,41.7,35.2,55.3,58.6c14,23.9,22.2,51.2,23.9,78.9c0.1,1.8,0.2,3.5,0.2,5.3
		c0.1,1.8,0.1,3.5,0.1,5.3h-18.4c-6.9,0-10.4,8.4-5.5,13.3l33.4,33.4c3,3,8,3,11,0l33.4-33.4C470.5,242.2,467,233.9,460.1,233.9z"/>
</g>
</svg>
